<?xml version="1.0" encoding="UTF-8"?>
<svg id="Camada_2" data-name="Camada 2" xmlns="http://www.w3.org/2000/svg" xmlns:xlink="http://www.w3.org/1999/xlink" viewBox="0 0 16.16 29.67">
  <defs>
    <style>
      .cls-1 {
        fill: url(#Gradiente_sem_nome_4);
      }
    </style>
    <linearGradient id="Gradiente_sem_nome_4" data-name="Gradiente sem nome 4" x1="8.08" y1=".26" x2="8.08" y2="29.93" gradientUnits="userSpaceOnUse">
      <stop offset="0" stop-color="#dfac51"/>
      <stop offset="1" stop-color="#c69246"/>
    </linearGradient>
  </defs>
  <g id="Camada_1-2" data-name="Camada 1">
    <path class="cls-1" d="M15.11.11c-.44.93-.93,1.23-1.96,1.22.1-1.02,1-1.58,1.96-1.22h0ZM14.15,1.65c-.85-.2-1.48.14-2.02.74.75.39,1.62,0,2.02-.74h0ZM12.97,2.88c-.87-.29-1.61.14-2.22.71.74.47,1.74.02,2.22-.71h0ZM11.94,4.11c-.87-.29-1.61.14-2.22.71.74.47,1.74.02,2.22-.71h0ZM10.82,5.48c-.87-.29-1.67.42-2.28.99.74.47,1.8-.26,2.28-.99h0ZM8.78,2.43c-.63.66-.57,1.51-.31,2.31.74-.47.76-1.56.31-2.31h0ZM7.54,3.86c-.63.66-.57,1.51-.31,2.31.74-.47.76-1.56.31-2.31h0ZM6.52,5.17c-.71.74-.64,1.7-.35,2.59.83-.52.86-1.75.35-2.59h0ZM5.4,6.9c-.56,1-.34,1.99.06,2.85.7-.81.54-2.12-.06-2.85h0ZM8.96,8.46c-1.14.16-1.8.92-2.25,1.75,1.07.07,2.02-.83,2.25-1.75h0ZM7.97,10.26c-.83.11-1.32.67-1.64,1.28.78.05,1.51-.66,1.84-1.32l-.2.04ZM4.42,11.88c-.42,1.18-.26,2.2.04,3.03.53-1.01.39-2.45.05-3.31l-.09.29ZM3.19,9.23c-.28,1.42,0,2.54.39,3.43.41-1.24.11-2.85-.33-3.77l-.06.34ZM.24,7.44c.35,1.54,1.24,2.49,2.16,3.14-.1-1.43-1.26-2.85-2.26-3.51l.09.37ZM.18,10.08c.69,1.71,1.68,2.87,3.18,3.26-.13-1.7-2.03-3.12-3.36-3.66l.18.41ZM.37,12.15c.83,1.44,1.99,2.14,3.09,2.54-.57-1.4-2.13-2.49-3.3-2.88l.21.34ZM4.37,9.41c-.02.84.45,1.41,1,1.83.18-.76-.41-1.6-1.01-2.03v.2ZM9.89,6.7c-1.15.03-1.89.72-2.43,1.5,1.06.19,2.1-.61,2.43-1.5h0ZM12.93.37c-.55.34-.75.93-.72,1.52.59-.19.9-.93.72-1.52h0ZM11.79.33c-.72.49-.89,1.19-.81,1.99.79-.29,1.08-1.2.81-1.99h0ZM10.41,1.13c-.73.57-.9,1.34-.83,2.2.82-.37,1.11-1.35.83-2.2h0ZM12.3,1.87c.09-.05,0-.18-.08-.13-3.48,2.44-5.98,6.25-6.7,10.44,0,0-.58,7.28-.58,7.29-.02.17.24.18.25.02,0,0,.58-7.28.58-7.28.66-4.09,3.13-7.94,6.54-10.35h0ZM13.23,23.38c.04-.06.02-.14-.04-.17-.56-.33-1.09-.72-1.58-1.15-.24-.21-.45-.41-.64-.62-.35-.38-.56-.64-.71-.84-.09-.11-.15-.2-.22-.27-.39-.43-.78-.47-2.43-.6-.39-.03-.85-.07-1.39-.12l-.31-.03c-1.36-.12-2.04-.19-2.24.23-.13.26.03.56.05.59.17.3.51.43,1.42.52.6.06,1.18.08,1.78.06.07,0,.12-.06.12-.13,0-.07-.06-.11-.13-.12-.59.02-1.16,0-1.75-.06-.9-.09-1.13-.21-1.23-.39,0,0-.12-.22-.04-.36.13-.26.87-.19,2-.09l.31.03c.55.05,1.01.09,1.39.12,1.56.13,1.94.16,2.26.52.06.07.13.16.21.26.15.2.37.47.72.85.2.21.41.42.66.64.5.44,1.04.84,1.62,1.18.02.01.04.02.06.02.04,0,.08-.02.11-.06ZM6.69,21.85c0-.07-.05-.13-.12-.13-.02,0-2.33-.1-2.96-.68-.15-.14-.21-.26-.19-.34.04-.13.31-.22.43-.25.07-.01.11-.08.1-.15-.01-.07-.08-.11-.15-.1-.05,0-.53.11-.62.42-.05.18.03.38.26.59.69.64,3.02.74,3.12.74h0c.07,0,.12-.05.12-.12ZM6.51,22.95c.07,0,.12-.06.12-.13,0-.07-.06-.12-.12-.12h0c-.08,0-1.67,0-2.93-.54-.34-.15-.53-.31-.54-.47-.01-.23.33-.47.46-.54.06-.03.08-.11.05-.17-.03-.06-.11-.08-.17-.05-.06.03-.61.34-.59.77.01.27.24.5.69.69,1.28.55,2.85.56,3.02.56h.01ZM6.54,24.02c0-.07-.05-.13-.12-.13-.01,0-1.43-.1-2.65-.44-.32-.09-.51-.23-.58-.42-.12-.35.19-.79.2-.8.04-.06.03-.13-.03-.17-.05-.04-.13-.03-.17.03-.02.02-.4.55-.23,1.03.1.28.35.47.75.58,1.25.34,2.68.44,2.7.44h0c.06,0,.12-.05.12-.12ZM10.85,26.63c.07,0,.12-.07.11-.14-.06-.65-1.47-.87-3.26-1.15-1.7-.26-3.62-.56-4.04-1.27-.1-.16-.11-.34-.04-.55.02-.07-.01-.14-.08-.16-.07-.02-.14.01-.16.08-.1.28-.08.53.06.76.49.81,2.38,1.11,4.22,1.39,1.41.22,3.01.46,3.05.92,0,.06.06.11.12.11,0,0,0,0,.01,0ZM4.48,29.55l.14-4.15c0-.07-.05-.13-.12-.13-.07,0-.13.05-.13.12l-.14,4.15c0,.07.05.13.12.13h0c.07,0,.12-.05.12-.12ZM5.86,29.21v-3.63c0-.07-.06-.12-.12-.12s-.12.06-.12.12v3.63c0,.07.06.12.12.12s.12-.06.12-.12ZM6,19.2l.18-1.08c.01-.07-.04-.13-.1-.14-.07,0-.13.03-.14.1l-.18,1.08c-.01.07.04.13.1.14,0,0,.01,0,.02,0,.06,0,.11-.04.12-.1ZM3.78,28.86l.45-3.61c0-.07-.04-.13-.11-.14-.08-.02-.13.04-.14.11l-.45,3.61c0,.07.04.13.11.14,0,0,.01,0,.02,0,.06,0,.12-.05.12-.11ZM2.67,27.67c.03-.08.81-1.86.98-2.86.01-.07-.03-.13-.1-.14-.07,0-.13.03-.14.1-.16.96-.95,2.78-.96,2.8-.03.06,0,.14.06.16.02,0,.03.01.05.01.05,0,.09-.03.11-.08ZM1.55,26.97c.07-.1,1.65-2.38,1.86-2.91.03-.06,0-.14-.07-.16-.07-.03-.14,0-.16.07-.2.51-1.82,2.84-1.83,2.86-.04.06-.03.13.03.17.02.02.05.02.07.02.04,0,.08-.02.1-.05ZM4.59,19.57c.07,0,.12-.06.12-.13-.01-.2-.28-4.84-1.32-6.27-.04-.06-.12-.07-.17-.03-.06.04-.07.12-.03.17.99,1.37,1.27,6.09,1.27,6.14,0,.07.06.12.12.12h0ZM1.12,14.31c.65.85,1.9,1.66,2.6,2.64,0,0,.06-.04.06-.04-.06-1.51-1.17-2.52-2.66-2.59h0ZM6.41,16.58s1.14-4.67,6.41-7.37c0,0-6.02,4.57-5.96,8.21,0,0,2.45-3.62,4.05-5.17.24-.24.65-.55.94-.73.66-.41,3.64-2.46,3.98-6.26,0,0-2.36,2.37-5.93,4.32-.37.2-3.56,1.99-3.74,5.11-.03.48,0,1.13.26,1.89ZM13.45,28.84c.01-.3.36-1.22.36-1.22.22-1.25,2.35-2.46,2.35-2.46-.75-.66-2.53-1.74-2.53-1.74-.76.51-2.43,3.48-2.43,3.48.27.45,2.25,1.94,2.25,1.94ZM12.63,14.4c3.19-1.66,3.38-5.2,3.38-5.2,0,0-.48.93-3.1,2.32-2.93,1.55-3.7,3.75-3.7,3.75,1.34-.11,3.42-.87,3.42-.87ZM6.78,19.2s1.32-2.57,4.44-3.44c0,0-3.19,1.86-3.68,3.15,0,0,3.55-.18,5.59-2.69s1.69-2.25,1.69-2.25c0,0-4.83,1.47-6.39,2.6-1.93,1.41-1.66,2.64-1.66,2.64Z"/>
  </g>
</svg>